/* XPM */
static char * D:\1euro\images\XPTz\bitcoin64_xpm[] = {
"64 64 302 2",
"  	c None",
". 	c #5A5A5A",
"+ 	c #585858",
"@ 	c #4A4A4A",
"# 	c #4B4B4B",
"$ 	c #484848",
"% 	c #464646",
"& 	c #494949",
"* 	c #4C4C4C",
"= 	c #595959",
"- 	c #5C5C5C",
"; 	c #5D5D5D",
"> 	c #3B3B3B",
", 	c #363636",
"' 	c #343434",
") 	c #383838",
"! 	c #3F3F3F",
"~ 	c #444444",
"{ 	c #474747",
"] 	c #424242",
"^ 	c #3C3C3C",
"/ 	c #373737",
"( 	c #4F4F4F",
"_ 	c #606060",
": 	c #3E3E3E",
"< 	c #636363",
"[ 	c #666666",
"} 	c #646464",
"| 	c #6A6A6A",
"1 	c #737373",
"2 	c #696969",
"3 	c #616161",
"4 	c #393939",
"5 	c #515151",
"6 	c #333333",
"7 	c #525252",
"8 	c #707070",
"9 	c #888888",
"0 	c #A4A4A4",
"a 	c #B3B3B3",
"b 	c #C8C8C8",
"c 	c #CFCFCF",
"d 	c #D0D0D0",
"e 	c #CECECE",
"f 	c #C7C7C7",
"g 	c #B2B2B2",
"h 	c #A2A2A2",
"i 	c #868686",
"j 	c #6F6F6F",
"k 	c #626262",
"l 	c #5E5E5E",
"m 	c #4D4D4D",
"n 	c #5B5B5B",
"o 	c #929292",
"p 	c #BEBEBE",
"q 	c #D1D1D1",
"r 	c #D3D3D3",
"s 	c #D5D5D5",
"t 	c #D8D8D8",
"u 	c #DADADA",
"v 	c #DBDBDB",
"w 	c #D9D9D9",
"x 	c #D6D6D6",
"y 	c #D4D4D4",
"z 	c #BABABA",
"A 	c #909090",
"B 	c #6C6C6C",
"C 	c #676767",
"D 	c #747474",
"E 	c #AAAAAA",
"F 	c #DEDEDE",
"G 	c #E1E1E1",
"H 	c #E4E4E4",
"I 	c #E7E7E7",
"J 	c #E9E9E9",
"K 	c #EAEAEA",
"L 	c #E6E6E6",
"M 	c #E3E3E3",
"N 	c #E0E0E0",
"O 	c #DCDCDC",
"P 	c #CDCDCD",
"Q 	c #A5A5A5",
"R 	c #717171",
"S 	c #353535",
"T 	c #414141",
"U 	c #5F5F5F",
"V 	c #6D6D6D",
"W 	c #ABABAB",
"X 	c #D2D2D2",
"Y 	c #DFDFDF",
"Z 	c #EDEDED",
"` 	c #F1F1F1",
" .	c #F5F5F5",
"..	c #F8F8F8",
"+.	c #F9F9F9",
"@.	c #FBFBFB",
"#.	c #FAFAFA",
"$.	c #F6F6F6",
"%.	c #F4F4F4",
"&.	c #EFEFEF",
"*.	c #EBEBEB",
"=.	c #E2E2E2",
"-.	c #DDDDDD",
";.	c #A6A6A6",
">.	c #6B6B6B",
",.	c #545454",
"'.	c #8E8E8E",
").	c #F3F3F3",
"!.	c #FCFCFC",
"~.	c #FFFFFF",
"{.	c #F0F0F0",
"].	c #D7D7D7",
"^.	c #BBBBBB",
"/.	c #BDBDBD",
"(.	c #CACACA",
"_.	c #FDFDFD",
":.	c #FEFEFE",
"<.	c #F7F7F7",
"[.	c #C9C9C9",
"}.	c #8B8B8B",
"|.	c #656565",
"1.	c #B4B4B4",
"2.	c #838383",
"3.	c #B9B9B9",
"4.	c #BCBCBC",
"5.	c #B1B1B1",
"6.	c #919191",
"7.	c #878787",
"8.	c #828282",
"9.	c #A9A9A9",
"0.	c #ECECEC",
"a.	c #ACACAC",
"b.	c #565656",
"c.	c #7E7E7E",
"d.	c #989898",
"e.	c #EEEEEE",
"f.	c #E5E5E5",
"g.	c #A0A0A0",
"h.	c #898989",
"i.	c #C4C4C4",
"j.	c #F2F2F2",
"k.	c #E8E8E8",
"l.	c #C1C1C1",
"m.	c #434343",
"n.	c #686868",
"o.	c #CCCCCC",
"p.	c #797979",
"q.	c #BFBFBF",
"r.	c #848484",
"s.	c #767676",
"t.	c #454545",
"u.	c #404040",
"v.	c #ADADAD",
"w.	c #AEAEAE",
"x.	c #9F9F9F",
"y.	c #B8B8B8",
"z.	c #777777",
"A.	c #818181",
"B.	c #B6B6B6",
"C.	c #A1A1A1",
"D.	c #6E6E6E",
"E.	c #555555",
"F.	c #535353",
"G.	c #858585",
"H.	c #A7A7A7",
"I.	c #9C9C9C",
"J.	c #9E9E9E",
"K.	c #7A7A7A",
"L.	c #727272",
"M.	c #8C8C8C",
"N.	c #757575",
"O.	c #A8A8A8",
"P.	c #B5B5B5",
"Q.	c #A3A3A3",
"R.	c #8F8F8F",
"S.	c #C5C5C5",
"T.	c #8A8A8A",
"U.	c #7F7F7F",
"V.	c #3D3D3D",
"W.	c #C2C2C2",
"X.	c #B7B7B7",
"Y.	c #7B7B7B",
"Z.	c #C0C0C0",
"`.	c #AFAFAF",
" +	c #CBCBCB",
".+	c #969696",
"++	c #B0B0B0",
"@+	c #8D8D8D",
"#+	c #949494",
"$+	c #999999",
"%+	c #9B9B9B",
"&+	c #B3AAAA",
"*+	c #CDC8C8",
"=+	c #C2BCBC",
"-+	c #ACA2A2",
";+	c #E8E7E7",
">+	c #B3ABAB",
",+	c #B1A8A8",
"'+	c #BBB4B4",
")+	c #AAA1A1",
"!+	c #ABA2A2",
"~+	c #ACA3A3",
"{+	c #B0A8A8",
"]+	c #CECACA",
"^+	c #E1DFDF",
"/+	c #AAA0A0",
"(+	c #DFDDDD",
"_+	c #C3C3C3",
":+	c #B2AAAA",
"<+	c #988C8C",
"[+	c #C3BDBD",
"}+	c #EAE9E9",
"|+	c #9B8F8F",
"1+	c #CCC7C7",
"2+	c #D9D5D5",
"3+	c #AEA5A5",
"4+	c #A39898",
"5+	c #ADA4A4",
"6+	c #C9C4C4",
"7+	c #E2E0E0",
"8+	c #C0BABA",
"9+	c #A29898",
"0+	c #C6C0C0",
"a+	c #C8C2C2",
"b+	c #EAE8E8",
"c+	c #A69B9B",
"d+	c #C1BBBB",
"e+	c #D0CBCB",
"f+	c #D1CCCC",
"g+	c #9C9090",
"h+	c #BAB2B2",
"i+	c #AFA6A6",
"j+	c #A79D9D",
"k+	c #B0A7A7",
"l+	c #C9C3C3",
"m+	c #D3CFCF",
"n+	c #BFB9B9",
"o+	c #9F9494",
"p+	c #A09595",
"q+	c #ADA3A3",
"r+	c #C6C6C6",
"s+	c #C7C1C1",
"t+	c #AFA7A7",
"u+	c #9D9191",
"v+	c #ABA1A1",
"w+	c #A89E9E",
"x+	c #988D8D",
"y+	c #DDDBDB",
"z+	c #9B9090",
"A+	c #E4E2E2",
"B+	c #E5E4E4",
"C+	c #998D8D",
"D+	c #A69C9C",
"E+	c #C8C3C3",
"F+	c #E4E3E3",
"G+	c #B2A9A9",
"H+	c #DEDBDB",
"I+	c #C4BEBE",
"J+	c #B1A9A9",
"K+	c #BCB6B6",
"L+	c #D8D4D4",
"M+	c #575757",
"N+	c #D7D4D4",
"O+	c #ECEBEB",
"P+	c #E0DDDD",
"Q+	c #9F9393",
"R+	c #9D9D9D",
"S+	c #DCD9D9",
"T+	c #EBEAEA",
"U+	c #D3CECE",
"V+	c #E9E7E7",
"W+	c #4E4E4E",
"X+	c #808080",
"Y+	c #3A3A3A",
"Z+	c #E9E8E8",
"`+	c #DBD9D9",
" @	c #978C8C",
".@	c #939393",
"+@	c #9E9292",
"@@	c #E2E1E1",
"#@	c #E5E3E3",
"$@	c #E3E1E1",
"%@	c #E6E5E5",
"&@	c #9D9292",
"*@	c #E0DEDE",
"=@	c #D8D5D5",
"-@	c #D9D6D6",
";@	c #CBC5C5",
">@	c #A59A9A",
",@	c #A19696",
"'@	c #BEB8B8",
")@	c #979797",
"!@	c #9A9A9A",
"~@	c #DAD8D8",
"{@	c #CAC5C5",
"]@	c #D5D2D2",
"^@	c #D6D3D3",
"/@	c #9F9595",
"(@	c #CFCACA",
"_@	c #978B8B",
":@	c #959595",
"<@	c #505050",
"                                                                                                                                ",
"                                                    . + @ # $ % % & # * = -                                                     ",
"                                            ; # > , ' ) ! ~ $ & & { ] ^ ) ' / ! ( _                                             ",
"                                        * ) ' : ( ; < < [ } | 1 1 2 < [ 3 _ + $ 4 ' : 5                                         ",
"                                    { 6 > 7 } } 8 9 0 a b c c d d d e f g h i j k l $ , / m                                     ",
"                                $ 6 ! n [ j o p q q r s t u u v v v w x y q q e z A B 3 5 / / 7                                 ",
"                            = ) > + C D E d q s u F G H I J J K J J I L M N O t r c P Q R 3 m S T U                             ",
"                          & 6 * 2 V W X X w Y M J Z `  ...+.@.@.@.#.+.$.%.&.*.L =.-.x d d ;.>._ : S ,.                          ",
"                        ! ) - C '.e q u Y L Z ).+.!.~.!.{.].b ^./.(.t )._.:.!.<.` *.M F x c [.}.< * 6 #                         ",
"                      ^ ! |.B 1.X t Y I &.<.!._.H Q 2.i o g 3.p p 4.5.6.7.8.9.J :.#.).0.H -.y e a.| b.S %                       ",
"                    4 ] 2 1 b X v M 0.$._.+.^.c.d.y e.K L f.L f.I I I J `  .x g.h.i.:.@.j.k.N ].c l.j - , m.                    ",
"                  ^ m.n.c.o.y F k.` #.@./.p.p %.I f.H f.H =.H =.G H H H k.I I *.e.q.r.f :.<.e.H u d f s.- , t.                  ",
"                ! u.2 c.d x N K  ._.I p.3.$.k.I L k.J I H X g.v.f.w.x.y H f.H H f.L e.y.2.e.!.{.L O q (.z.- ' @                 ",
"              $ ) [ 1 o.s N *.<._.l.A.%.0.k.H f.L K K B.C.D.B t I w B j Q a H f.M M H L *.7.(.:.j.I v q f j E.6 F.              ",
"            = ' ; >.b y N K ..:.0 0 ` I f.N H H L J -.0 V V G.J J K i V j H.u L M =.H M H e.I.w.~.j.L v c l.n.@ / 3             ",
"            / * C a q F J $.!.J.p K M H N N M H k.k.X j D.p.4.I k.K q.K.V L.s I J k.I f.L L K z 9.~.{.f.w P 9.3 ^ %             ",
"          { > >.M.d v L  .:.;.4.f.H =.=.G =.H f.f.].j D.N.g O.y.*.3.O.g z.D.D u *.*.0.K J J k.*.3.P.:.&.=.s o.i - 6 b.          ",
"          ' n B o.].M j._.i.Q.I H H H H M L H H H =.A L.x k.w.O.E O.a.f.].s.R.*.e.e.e.&.e.J k.I K J.x #.*.F q S.n.t.:           ",
"        { u.n.H.q Y 0.@.J r.I =.H L I I k.L I H =.=.H P k.J f.9.9.9.M K K X 0.e.&.{.j. .j.` *.I f.0.T. .%.L w o.C.; ' ,.        ",
"        ' l R q t L  ._.U.I M =.f.J J J k.J L H f.M k.I k.J 1.9.9.9.a e.&.` ` {.).e.{.).).).` *.I k.K A ~.&.G r (.V % :         ",
"      * V.n.H.q Y e.@.W.B.H M M k.Z 0.0.Z Z 0.Z *.*.0.K K a 9.9.P O.9.g 0.&.%.&.` e.e.&.{.).j.e.*.I L X.r <.I u o.I.- ' n       ",
"      ) E.V e t f. .@.Y.0.=.M L *.Z e.&.j.%. .$.).` ` 0.g O.O.].L w 9.9.5.k.Z e.&.*.Z &.` {.&.e.*.J K *.M.~.&.Y X f [ V.$       ",
"    l S [ R.d -.0.@.Z.B.H L f.J 0.Z e.` j.$.&.` {.{.0.5.9.9.r I L H q O.9.`.K 0.Z ` 0.Z e.&.` j.{.Z k.H 3.r $.f.t  +i 7 )       ",
"    $ u.[ 3.r =.` :.8.*.f.f.=.K J 0.*.` 0.J I k.L =.`.O.9.e k.J f.f.=.o.9.9.w.f.&.e.Z &.&.j.j.).$.%.e.0.` '.~.0.-.e v.- S +     ",
"    > 7 D.e w L <.J d.I L f.L k.J K *.J L L M G H u O.O.f Z *.e.*.e.J J [.9.9.f.` {.&.&.j.).$.<. .<.` e.0.I. .{.=.r b < 4 #     ",
"    , _ 2.d O *.!.v.X M M G f.L I f.k.J M M =.N H M w l.0.e.0.e.0.Z Z &.Z i.Y &.` {.&.&.` ).j.<.$. .` *.*.X p $.L x  +Y.$ !     ",
"  _ S C I.d Y &.~.9 &.=.M N H f.I J I k.M H =.M L J J Z *.0.0.K 0.j.` ).j.).).j.&.&.{.{.{.{.j.&.).&.0.K J {..+_.J u  +.+7 )     ",
"  ,.> } ++y M j.~.@+I =.=.f.k.*.J J k.*.k.J *.0.e.&.Z 0.0.k.J 0.e.j.).j. .).$.j.{.{.&.` {.e.&.{.Z &.*.k.J *.#+~.0.O e J.. S }   ",
"  # T n.Z.x H  . .$+I H I I *.Z e.e.Z ` {.Z {.&.{.&.&.e.0.I J 0.*.{.%.).<. .).&.&.Z &.{.` &.{.e.K e.Z k.k.f.%+!.e.F d y.+ ' b.  ",
"  m.{ |.P x L ..v 4.Z k.*.*.e.&.&+*+` {.{.&.e.=+-+;+{.Z >+,+*.'+)+!+~+{+]+j.^+)+/+)+/+!+~+(+` ` ` ` j.Z K K a *.` N q /.n S l   ",
"  & # [ P t I +.d _+J k.0.0.Z :+<+[+&.{.Z &.{.}+|+>+` 1+<+2+j.3+4+[+=+5+<+6+7+=+8+9+9+0+a+b+$.<.$. .).&.e.*.Z.N j.G X Z.k / .   ",
"  { * V P t k.+.f _+J K *.0.<+c+<+d+0.J 0.e.{.j.e+<+f+g+h+<.#.i+3+%.{.` j+k+e.*.*.~+5+<.+.@.l+l+l+a+e+Z 0.Z S.y j.=.r S.[ / ,.  ",
"  { * >.e w I +.b _+L I J J m+Z <+n+K J J &.). .%.{+<+o+&.<.%.i+i+j.{.k.p+>+` Z e.q+3++...!.5+5+/+<+3+0.K Z r+y j.=.r i.[ ) b.  ",
"  & & } P t L +.q p L H I 0.Z e.<+8+K 0.0. .%.$. .s+<+t+{.{.` 3+u+v+w+x+<+y+{.&.{.5+3+%...<...+.~+z+A+K K Z q.=.j.G X q.3 , n   ",
"  t.t.|.o.].f.$.Y B.I L I Z 0.&.<+d+*.e.&.<.<.<.B+C+D+<+*+&.&.5+4+d+=+E+F+Z 0.e.&.5+3+ . ...$.G+<+H+Z I I *.X.0.{.Y q /.= S _   ",
"  ( : C /.y H %.+.o f.M H *.&.` <+I+j. .+.+...$./+p+{.J+z+}+{.3+q+Z K J k.J 0.Z j.5+i+$.$.$.K+<+L+j.Z *.K 0.Q.@.e.-.c B.b.S M+  ",
"  ,.) < `.X G ` ~.'.f.M =.k.{.{.<+0++.<.<.#...l+<+N+%.O+|+:+<.i+3+` 0.&.0.J K Z &.3+3+%. .P+<+Q+q+-+)+*.*.Z $+~.*.v P R+b., [   ",
"  < ' } $+c -.Z ~.R.*.G H J 0.j.0+H+<.<...<.` s+*+` ).).S+0+T+U+f+j.` e.e.e.0.Z 0.]+e+). .V+s+0+s+0+I+*.*.{.I.@.I t (.o W+>     ",
"    / . X+d u J #.1.X =.L J *.j.` j.%. .` ` {.Z 0.Z &.` %.$.%.<.j.` ` Z ` e.e.{.0.e.{.e. .$.<.$. .%.Z K K q r+).H y [.z.] t.    ",
"    u.# V  +x f. .&.I.k.L k.*.Z {.` j.j.{.e.K *.0.Z {.` j.).`  .0.&.Z K {.Z e.e.0.Z {.`  .<.$.%.).` *.k.K g...e.N d S._ , (     ",
"    m Y+< 1.q N &.:.@+{.J K k.K e.e.&.` Z Z *.J 0.0.).&.` ` e.` 0.J Z J *.0.L e.*.Z {.` $. .$.).{.{.0.0.j.d._.J v o.O.E.S ;     ",
"      ' _ T.P v J #.P /.J K f.L K J *.Z *.K k.J Z &.` &.F+Z+e.{.*.J *.J *.J K e.Z {.j.{. .<... .` Z J *.y.Y ).M x [.8.$ :       ",
"      V.@ 2 (.y M j.~.}.Z L G =.=.k.0.K 0.K 0.0.0.&.`+<+|+ @/+Z e.e.Z 0.Z e.Z &.Z Z &.`  .%.%.).Z *.K $..@~.*.F c W.U / (       ",
"      ,./ } x.e O K #.e P.=.Y F G M J J K *.J &.` *.<+l+{.&.+@k+&.@@#@$@%@e.*.Z *.Z {.&.{.j.&.e.L 0.0.3.N ).f.x (..+7 , U       ",
"        , 7 D.P s M {.~.}.=.-.-.F =.J K Z {.{.$.` f+&@j.).` *@<+{.4+&@<+5+=@-@^+j.&.j.&.` 0.J J L k.0.I.!.*.F c f |.V.{         ",
"        ( / < g.e v I  .).i H N G H *.*.0.&.j. .%.;@>@` ).j.O+<+Z %.^+<+=@[+,@'@{.{.j.&.0.J I I I {.)@+.{.=.x b !@F.S n         ",
"          / m 2 r+X Y 0.@.q $+I f.J K *.Z &.` %.%.L+ @).` j.m+<+).%.<+~@Z e+w+J Z Z e.J *.K L I *.E G  .L u P Z.k Y+$           ",
"          5 S _ i P ].=.&.:.B.3.0.f.L L J I &.).).%.<+-+%.7+C+{@ .o+]@&.^@/@;+*.k.f.H f.k.I I 0._+r++.K F X (.X+* / l           ",
"            T ! } H.P w H ` :.5.3.k.=.N H I e.&. .$.Z &+<+C+(@%. .<+<+_@<+5+~+~+f.H H G =.k.0.i./.@.0.G r [.g.b.' 5             ",
"              S * n.q.d v L j.:.^.x.L G N f.K K Z Z j.{.` j.e.` {.`  .` $.j.e.e.L L f.H I &.W f @.e.G x  +X.l > ]               ",
"              ,.6 E.B i.d v L {._.u A M N f.f.L J L I 0.*.Z K *.0.*.&.&.j.{.0.0.0.*.K k.Z :@G +.Z G x o.q.[ m.> l               ",
"                # S - N.(.d v H e.#.<..@B.0.H f.H H L k.I K I L I L J J k.K J Z &.&.<.^.%+#. .*.G ].o._+>.@ S =                 ",
"                  { S n D S.c t =.K %.~.s R.z &.f.M H f.L f.M M N G M =.=.I k.0. .p :@Y :.{.I F y  +q.>.@ ' 7                   ",
"                    t.S . B q.P x F I &...~.s .@C.c &.K H H M N G Y N N H *.X Q.d.-.~.%.K M v X [.X.} & ' F.                    ",
"                      $ 6 7 [ H.o.q w =.I {.<.~. .q.)@)@I.`.P.B.1.g `.%+$+R+_+<._.%.0.f.F x e (.g.; ] , ,.                      ",
"                        m ' % U G.i.P y u N I 0.` <._.~._.0.M t t M 0._.~.!. .{.K H Y t d (.Z.X+E.Y+^ .                         ",
"                          E.4 4 + [ J. +P r w F M L K e.{.j.%.%.%.).{.&.Z J f.G O x q  +b !@3 @ ' t.l                           ",
"                              { ' u.= >.%+f o.c r t u -.N =.=.M =.=.G Y -.w s X P (.i..+} <@4 ) F.                              ",
"                                + T 6 ] + < G.v.[.P P c q r r y y X X d e o. +r+9.8.l ( 4 S @ _                                 ",
"                                    + T S Y+* M+3 K.:@x.3.p W.S.S.l.p X.J..@s.; 7 ~ S ) @ ;                                     ",
"                                        n m ^ S / ] * E.b.b.l < < ; ,.,.5 $ V.S , ] ,._                                         ",
"                                              - ( ~ ^ , S ' S S S ' S S ) ! @ F._                                               ",
"                                                      C + k l + = U k = >.                                                      ",
"                                                                                                                                "};
