/* XPM */
static char * D:\1euro\images\XPTz\bitcoin16_xpm[] = {
"16 16 102 2",
"  	c None",
". 	c #3E3E3E",
"+ 	c #424242",
"@ 	c #3C3C3C",
"# 	c #545454",
"$ 	c #A0A0A0",
"% 	c #D7D7D7",
"& 	c #F3F3F3",
"* 	c #F2F2F2",
"= 	c #D5D5D5",
"- 	c #9C9C9C",
"; 	c #515151",
"> 	c #7F7F7F",
", 	c #EEEEEE",
"' 	c #D6D6D6",
") 	c #D4D4D4",
"! 	c #CCCCCC",
"~ 	c #CECECE",
"{ 	c #D8D8D8",
"] 	c #EAEAEA",
"^ 	c #787878",
"/ 	c #EFEFEF",
"( 	c #C8C8C8",
"_ 	c #E8E8E8",
": 	c #E9E9E9",
"< 	c #E7E7E7",
"[ 	c #E6E6E6",
"} 	c #C9C9C9",
"| 	c #ECECEC",
"1 	c #777777",
"2 	c #555555",
"3 	c #EDEDED",
"4 	c #C6C6C6",
"5 	c #E3E3E3",
"6 	c #DADADA",
"7 	c #929292",
"8 	c #B1B1B1",
"9 	c #CDCDCD",
"0 	c #505050",
"a 	c #9F9F9F",
"b 	c #F0F0F0",
"c 	c #C7C7C7",
"d 	c #C1C1C1",
"e 	c #BABABA",
"f 	c #EBEBEB",
"g 	c #D9D9D9",
"h 	c #939393",
"i 	c #3F3F3F",
"j 	c #D3D3D3",
"k 	c #E4E4E4",
"l 	c #E1E1E1",
"m 	c #DDDDDD",
"n 	c #B9B9B9",
"o 	c #CFCFCF",
"p 	c #F1F1F1",
"q 	c #373737",
"r 	c #E9E8E8",
"s 	c #DAD9D9",
"t 	c #E5E4E4",
"u 	c #CAC7C7",
"v 	c #D7D3D3",
"w 	c #E6E5E5",
"x 	c #414141",
"y 	c #D2D2D2",
"z 	c #B0A8A8",
"A 	c #EAE9E9",
"B 	c #A79D9D",
"C 	c #E8E7E7",
"D 	c #CFCACA",
"E 	c #B3AAAA",
"F 	c #B4ADAD",
"G 	c #D1D1D1",
"H 	c #DEDBDB",
"I 	c #E5E3E3",
"J 	c #EBEAEA",
"K 	c #BCB5B5",
"L 	c #AFA6A6",
"M 	c #C4C0C0",
"N 	c #9A9A9A",
"O 	c #D5D2D2",
"P 	c #CCC8C8",
"Q 	c #E6E4E4",
"R 	c #E4E2E2",
"S 	c #CBC8C8",
"T 	c #8E8E8E",
"U 	c #D3CFCF",
"V 	c #D9D5D5",
"W 	c #B7AFAF",
"X 	c #4D4D4D",
"Y 	c #D7D4D4",
"Z 	c #E0DFDF",
"` 	c #B0A7A7",
" .	c #6F6F6F",
"..	c #757575",
"+.	c #DBDBDB",
"@.	c #DCDCDC",
"#.	c #6E6E6E",
"$.	c #4F4F4F",
"%.	c #CBCBCB",
"&.	c #8D8D8D",
"*.	c #363636",
"=.	c #3D3D3D",
"            . + + @             ",
"        # $ % & * = - ;         ",
"      > , ' ) ! ~ % { ] ^       ",
"    > / ( _ : < < [ [ } | 1     ",
"  2 3 4 < 5 6 7 8 } / / 9 [ 0   ",
"  a = < 3 b c } d e 3 b f g h   ",
"i j = k < l m n o ' / p / 6 ! q ",
"+ / ) | r f s b t u ] v w g [ . ",
"x , y f z A * B f C D E t F [ . ",
"@ G ' ] H I J K , t | L ] M } q ",
"  N 6 [ t w r O P ] 3 Q R S T   ",
"  ; _ ( ] b * U V W | f j 5 X   ",
"    1 | ! [ | Y Z ` _ j _  .    ",
"      ..< +.g ) G 6 @.5 #.      ",
"        $.7 9 _ _ %.&.X         ",
"            *.=.@ q             "};
